<?xml version="1.0" encoding="UTF-8"?>
<svg id="Layer_1" xmlns="http://www.w3.org/2000/svg" version="1.1" viewBox="100 300 900 500">
  <!-- Generator: Adobe Illustrator 29.0.1, SVG Export Plug-In . SVG Version: 2.1.0 Build 192)  -->
  <defs>
    <style>
      .st0 {
        fill: #22b05c;
      }

      .st1 {
        fill: #fff;
      }

      .st2 {
        fill: #342e3f;
      }
    </style>
  </defs>
  <!-- Bakgrundsrektangeln har tagits bort här -->
  <g>
    <g>
      <path class="st0" d="M175.43,499.08c-4.65,10.98-17.48,17.5-31.33,16.88-21.54-.96-37.51-13.13-43.43-29.25-2.17,22.72,11.18,42.42,35.01,47.81,25.79,5.82,50.57-7.06,57.67-24.74l-17.91-10.69Z"/>
      <g>
        <path class="st1" d="M824.87,503.32c0,17.05-15.2,31.32-43.91,31.32-24.39,0-41.09-13.34-42.59-31.32l18.2-8.72c1.5,15.02,14.82,20.4,27.21,20.4,11.26,0,19.13-4.63,19.13-11.12,0-17.61-60.42-1.85-60.42-39.3,0-15.76,15.39-27.62,40.91-27.62s41.07,13.16,41.07,26.88l-17.24,7.41c-1.13-10.75-13.51-14.83-24.39-14.83s-17.64,3.52-17.64,8.53c0,13.53,59.67,3.34,59.67,38.38ZM326.84,464.94c0-5.01,7.13-8.53,17.64-8.53s23.26,4.08,24.39,14.83l16.13-8.52c0-13.73-14.45-25.78-39.96-25.78s-40.91,11.87-40.91,27.62c0,37.45,60.42,21.69,60.42,39.3,0,6.49-7.87,11.12-19.13,11.12-12.39,0-25.71-5.37-27.21-20.4l-18.2,8.72c1.5,17.98,18.2,31.32,42.59,31.32,28.71,0,43.91-14.27,43.91-31.32,0-35.04-59.67-24.85-59.67-38.38ZM268.41,437.07h22.7v97.57h-22.7v-15.2c-5.64,9.38-16.15,15.2-26.84,15.2-26.83,0-39.03-21.58-39.03-49.54s12.19-48.03,39.03-48.03c10.69,0,21.2,5.44,26.84,14.45v-14.45ZM268.03,485.1c0-16.7-8.07-28.33-21.2-28.33s-21.58,11.64-21.58,28.33,7.88,29.08,21.58,29.08,21.2-11.83,21.2-29.08ZM459.98,478.63c0,12.76-2.44,34.53-23.64,34.53-8.63,0-15.76-3.38-15.76-23.08v-53.01h-22.71v60.51c0,23.65,11.26,37.16,33.02,37.16,16.95,0,25.19-8.7,29.09-20.7v3.81c0,17.92-5.81,31.5-24.4,34.15-14.68,2.08-25.26-5.66-33.37-16.93l-12.23,15.25c6.24,10.83,25.42,20.47,43.58,20.45,2.59,0,5.17-.2,7.68-.62,27.56-4.62,41.44-23.51,41.44-50.79v-82.28h-22.7v41.56ZM702.53,534.64h22.7v-97.57h-22.7v97.57ZM923.56,437.07v97.57h-22.7v-15.2c-5.63,9.38-16.14,15.2-26.83,15.2-26.83,0-39.03-21.58-39.03-49.54s12.2-48.03,39.03-48.03c10.69,0,21.2,5.44,26.83,14.45v-14.45h22.7ZM900.49,485.1c0-16.7-8.07-28.33-21.2-28.33s-21.58,11.64-21.58,28.33,7.89,29.08,21.58,29.08,21.2-11.83,21.2-29.08ZM663.78,437.07h22.7v97.57h-22.7v-15.2c-5.63,9.38-16.14,15.2-26.83,15.2-26.83,0-39.03-21.58-39.03-49.54s12.2-48.03,39.03-48.03c10.69,0,21.2,5.44,26.83,14.45v-14.45ZM663.4,485.1c0-16.7-8.07-28.33-21.2-28.33s-21.58,11.64-21.58,28.33,7.89,29.08,21.58,29.08,21.2-11.83,21.2-29.08ZM588.19,486.7c0,27.21-12.19,48.04-39.03,48.04-10.69,0-21.2-5.45-26.83-14.45v50.47h-22.7v-133.69h22.7v15.29c5.63-9.38,16.13-15.2,26.83-15.2,26.84,0,39.03,21.58,39.03,49.54ZM565.48,486.7c0-17.26-7.88-29.08-21.58-29.08s-21.21,11.82-21.21,29.08,8.07,28.33,21.21,28.33,21.58-11.63,21.58-28.33Z"/>
        <path class="st0" d="M699.15,411.93c0-8.07,6.57-14.64,14.63-14.64s14.45,6.56,14.45,14.64-6.56,14.45-14.45,14.45-14.63-6.56-14.63-14.45"/>
        <path class="st1" d="M102.64,477.38c3.27-24.5,19.02-40.24,43.65-41.63,14.79-.83,29.9,4.47,38.24,18.37,7.35,12.24,8.63,36.62-22.94,43.1-32.85,6.74-53.71-9.02-58.95-19.84M164.44,463.51c-3.18-4.86-9.29-7.41-17.74-6.94-13.67.77-21.68,9.82-23.55,18.3,3.96,4.33,22.23,8.42,35.54,3.86,6.83-2.34,9.5-9.5,5.75-15.22"/>
      </g>
    </g>
    <g>
      <g>
        <path class="st1" d="M782.81,571.42c-6.81,0-10.71,3.66-12.5,5.98v-21.58h-7.14v55.39h6.93v-4.98c3.1,3.92,7.23,5.91,12.28,5.91,5.35,0,10.2-2.03,13.66-5.72,3.44-3.68,5.34-8.85,5.34-14.56,0-12.03-7.63-20.43-18.56-20.43ZM782.17,578.06c3.34,0,6.37,1.36,8.53,3.84,2.19,2.51,3.4,6.08,3.4,10.03s-1.21,7.46-3.51,9.96c-2.18,2.38-5.22,3.69-8.56,3.69-6.91,0-11.92-5.74-11.92-13.65s4.85-13.87,12.07-13.87Z"/>
        <path class="st1" d="M870.06,571.42c-2.84,0-5.5.71-7.69,2.04-1.38.84-2.56,1.93-3.45,3.16v-4.26h-7.14v38.85h7.14v-23.02c0-5.69,4.2-9.98,9.77-9.98,5.16,0,8.9,3.84,8.9,9.12v23.88h7.14v-24.24c0-9.15-6.04-15.54-14.68-15.54Z"/>
        <polygon class="st1" points="909.73 589.85 922.74 572.36 914.37 572.36 903.8 586.81 898.36 586.81 898.36 555.82 891.22 555.82 891.22 611.2 898.36 611.2 898.36 593.45 903.99 593.45 915.06 611.2 923.56 611.2 909.73 589.85"/>
        <path class="st1" d="M844.08,572.36h-7.21v5c-1.69-2.22-5.55-5.94-12.43-5.94-10.93,0-18.56,8.4-18.56,20.43,0,5.72,1.89,10.89,5.31,14.56,3.44,3.69,8.3,5.72,13.68,5.72,5,0,9.12-1.93,12.01-5.59v5.59h7.18v-4.01c0-2.02.02-4.31.02-4.42v-31.36ZM833.87,601.58c-2.18,2.61-5.19,3.99-8.71,3.99-7.06,0-12-5.61-12-13.65,0-3.95,1.21-7.51,3.4-10.03,2.16-2.48,5.18-3.84,8.53-3.84s6.3,1.27,8.44,3.59c2.32,2.51,3.55,6.06,3.55,10.28,0,3.74-1.14,7.18-3.22,9.66Z"/>
      </g>
      <g>
        <path class="st1" d="M568.58,554.78v21.58c-1.79-2.31-5.69-5.98-12.5-5.98-10.93,0-18.56,8.4-18.56,20.43,0,5.71,1.9,10.88,5.34,14.56,3.45,3.69,8.3,5.72,13.66,5.72,5.05,0,9.18-1.99,12.28-5.91v4.98h6.93v-55.39h-7.14ZM556.87,604.54c-7.11,0-12.07-5.61-12.07-13.65,0-3.95,1.21-7.51,3.4-10.03,2.16-2.48,5.18-3.84,8.53-3.84,7.22,0,12.07,5.57,12.07,13.87,0,8.96-6,13.65-11.92,13.65Z"/>
        <path class="st1" d="M631.06,571.32v4.98c-3.1-3.92-7.23-5.91-12.28-5.91-5.35,0-10.2,2.03-13.66,5.72-3.44,3.68-5.34,8.85-5.34,14.56,0,12.03,7.63,20.43,18.56,20.43,7.02,0,10.78-3.55,12.5-5.87v9.53c0,3.72-1.41,5.24-4.88,5.24h-16.98v6.71h16.91c3.74,0,6.67-.9,8.72-2.67,2.24-1.93,3.37-4.86,3.37-8.7v-44.01h-6.93ZM618.99,604.47c-7.02,0-11.92-5.67-11.92-13.79s4.96-13.65,12.07-13.65,11.92,5.74,11.92,13.65c0,4.19-1.23,7.72-3.56,10.21-2.16,2.31-5.18,3.58-8.51,3.58Z"/>
        <g>
          <rect class="st1" x="660.62" y="555.23" width="8.98" height="6.19"/>
          <path class="st1" d="M687.02,577.6v-6.28h-11.5v-10.86h-6.78v10.86h-7.41v6.28h7.05v21.2c0,3.84,1.13,6.77,3.37,8.7,2.05,1.77,4.98,2.67,8.72,2.67h6.05v-6.42h-6.12c-3.56,0-4.88-1.36-4.88-5.02v-21.13h11.5Z"/>
        </g>
        <polygon class="st1" points="642.21 571.14 642.21 577.42 649.32 577.42 649.32 610.17 656.46 610.17 656.46 577.42 656.46 577.12 656.46 576.68 656.46 571.87 656.46 571.14 642.21 571.14"/>
        <polygon class="st1" points="579.97 571.14 579.97 577.42 587.08 577.42 587.08 610.17 594.22 610.17 594.22 577.42 594.22 577.12 594.22 576.68 594.22 571.87 594.22 571.14 579.97 571.14"/>
        <path class="st1" d="M726.99,571.32h-7.21v5c-1.69-2.22-5.55-5.94-12.43-5.94-10.93,0-18.56,8.4-18.56,20.43,0,5.72,1.89,10.89,5.31,14.56,3.44,3.69,8.3,5.72,13.68,5.72,5,0,9.12-1.93,12.01-5.59v5.59h7.18v-4.01c0-2.02.02-4.31.02-4.42v-31.36ZM716.78,600.55c-2.18,2.61-5.19,3.99-8.71,3.99-7.06,0-12-5.61-12-13.65,0-3.95,1.21-7.51,3.4-10.03,2.16-2.48,5.18-3.84,8.53-3.84s6.3,1.27,8.44,3.59c2.32,2.51,3.55,6.06,3.55,10.28,0,3.74-1.14,7.18-3.22,9.66Z"/>
        <polygon class="st1" points="734.53 611.21 741.67 611.21 741.67 561.16 741.65 561.16 741.65 560.46 741.65 555.57 741.65 554.84 726.98 554.84 726.98 561.19 734.53 561.19 734.53 611.21"/>
      </g>
    </g>
  </g>
</svg>