<svg width="125" height="124" viewBox="0 0 125 124" fill="none" xmlns="http://www.w3.org/2000/svg">
<path d="M18.8183 26.0804C16.2375 26.0804 14.4307 25.0403 13.3986 22.9598L16.1905 21.3644C16.7067 22.3968 17.5825 22.913 18.8183 22.913C19.6784 22.913 20.3199 22.7099 20.7421 22.303C21.1645 21.8963 21.3757 21.3411 21.3757 20.6371V9.32849H24.5899V20.6372C24.5899 22.3578 24.0503 23.6954 22.9711 24.649C21.8919 25.6037 20.5077 26.0804 18.8183 26.0804Z" fill="#FEFEFE"/>
<path d="M34.7487 14.021H37.7752V25.7521H34.7487V24.3679C33.8412 25.5099 32.5666 26.0805 30.9243 26.0805C29.36 26.0805 28.0186 25.482 26.9006 24.2857C25.7822 23.0893 25.2231 21.6229 25.2231 19.8865C25.2231 18.1502 25.7822 16.6838 26.9006 15.4875C28.0186 14.291 29.3601 13.6925 30.9243 13.6925C32.5666 13.6925 33.8412 14.2637 34.7487 15.4051V14.021ZM29.1647 22.268C29.7748 22.8862 30.5488 23.1948 31.4874 23.1948C32.4259 23.1948 33.2037 22.8862 33.8219 22.268C34.4397 21.6503 34.7487 20.8565 34.7487 19.8865C34.7487 18.9172 34.4397 18.1232 33.8219 17.5049C33.2037 16.8873 32.4259 16.5781 31.4874 16.5781C30.5488 16.5781 29.7748 16.8873 29.1647 17.5049C28.5547 18.1232 28.2498 18.9172 28.2498 19.8865C28.2498 20.8565 28.5547 21.6504 29.1647 22.268Z" fill="#FEFEFE"/>
<path d="M43.2526 22.9133H48.4611V25.7522H39.2104V23.7373L44.157 16.8599H39.4411V14.021H48.2309V16.0323L43.2526 22.9133Z" fill="#FEFEFE"/>
<path d="M53.1771 22.9133H58.3855V25.7522H49.1349V23.7373L54.0815 16.8599H49.3656V14.021H58.1554V16.0323L53.1771 22.9133Z" fill="#FEFEFE"/>
<path d="M67.6191 26.0804C65.1476 26.0804 63.1062 25.2592 61.4955 23.6172C59.8842 21.9745 59.0789 19.9494 59.0789 17.5404C59.0789 15.1158 59.8842 13.0864 61.4955 11.4516C63.1063 9.81771 65.1476 9 67.6191 9C69.1048 9 70.4775 9.34812 71.7365 10.044C72.9955 10.7404 73.9773 11.683 74.6811 12.8713L71.8892 14.49C71.4822 13.7549 70.9038 13.1804 70.1529 12.7656C69.4023 12.3516 68.5576 12.144 67.6191 12.144C66.0236 12.144 64.7369 12.6447 63.7596 13.6453C62.7819 14.6468 62.2932 15.9446 62.2932 17.5404C62.2932 19.1206 62.782 20.4108 63.7596 21.4117C64.737 22.4127 66.0237 22.9131 67.6191 22.9131C68.5577 22.9131 69.4059 22.706 70.1645 22.2913C70.9232 21.8773 71.4981 21.3101 71.8892 20.5906L74.6811 22.2092C73.9772 23.398 72.9995 24.3405 71.7484 25.0364C70.4968 25.7328 69.1209 26.0804 67.6191 26.0804Z" fill="#FEFEFE"/>
<path d="M85.0514 14.021H88.0778V25.7521H85.0514V24.3679C84.1439 25.5099 82.8693 26.0805 81.227 26.0805C79.6627 26.0805 78.3212 25.482 77.2032 24.2857C76.0848 23.0893 75.5258 21.6229 75.5258 19.8865C75.5258 18.1502 76.0848 16.6838 77.2032 15.4875C78.3212 14.291 79.6627 13.6925 81.227 13.6925C82.8693 13.6925 84.1438 14.2637 85.0514 15.4051V14.021ZM79.4674 22.268C80.0774 22.8862 80.8514 23.1948 81.7899 23.1948C82.7283 23.1948 83.5062 22.8862 84.1245 22.268C84.7423 21.6503 85.0513 20.8565 85.0513 19.8865C85.0513 18.9172 84.7423 18.1232 84.1245 17.5049C83.5062 16.8873 82.7283 16.5781 81.7899 16.5781C80.8513 16.5781 80.0774 16.8873 79.4674 17.5049C78.8572 18.1232 78.5524 18.9172 78.5524 19.8865C78.5524 20.8565 78.8571 21.6504 79.4674 22.268Z" fill="#FEFEFE"/>
<path d="M92.5824 17.3527C92.5824 17.666 92.7895 17.9196 93.2043 18.1152C93.6183 18.3109 94.1228 18.4831 94.7175 18.6313C95.3117 18.7801 95.9058 18.9679 96.5007 19.1942C97.0949 19.4212 97.5993 19.8006 98.0138 20.3322C98.4282 20.8642 98.6356 21.5291 98.6356 22.3265C98.6356 23.5314 98.186 24.4581 97.2866 25.1069C96.387 25.7556 95.2648 26.0804 93.9198 26.0804C91.511 26.0804 89.8687 25.15 88.9926 23.2883L91.6205 21.8102C91.9645 22.8274 92.7311 23.3354 93.9198 23.3354C94.999 23.3354 95.5387 22.9994 95.5387 22.3265C95.5387 22.0137 95.3312 21.76 94.9169 21.564C94.5026 21.3686 93.998 21.1924 93.4035 21.0362C92.8088 20.8798 92.2147 20.6844 91.6205 20.4495C91.0259 20.2149 90.5217 19.8439 90.107 19.3352C89.6926 18.8271 89.4855 18.1897 89.4855 17.4227C89.4855 16.2655 89.9115 15.3548 90.7641 14.6894C91.6165 14.025 92.6765 13.6924 93.9432 13.6924C94.8971 13.6924 95.7652 13.9077 96.5474 14.3375C97.3297 14.768 97.9471 15.3816 98.4011 16.1796L95.8204 17.5871C95.4449 16.7893 94.8192 16.3908 93.9432 16.3908C93.552 16.3908 93.2277 16.4766 92.9696 16.6486C92.7115 16.8213 92.5824 17.0558 92.5824 17.3527Z" fill="#FEFEFE"/>
<path d="M106.167 13.6925C107.449 13.6925 108.509 14.123 109.346 14.9828C110.183 15.8431 110.601 17.0324 110.601 18.549V25.7521H107.575V18.9246C107.575 18.1424 107.364 17.5445 106.941 17.1298C106.519 16.7156 105.956 16.5081 105.252 16.5081C104.47 16.5081 103.844 16.7506 103.375 17.2353C102.906 17.7202 102.671 18.4475 102.671 19.4174V25.7521H99.6443V9.32849H102.671V15.335C103.406 14.2403 104.572 13.6925 106.167 13.6925Z" fill="#FEFEFE"/>
</svg>
