<svg width="18" height="16" viewBox="0 0 18 16" fill="none" xmlns="http://www.w3.org/2000/svg">
<path d="M0 0.95C0 0.42533 0.42533 0 0.95 0H17.05C17.5747 0 18 0.42533 18 0.95C18 1.47467 17.5747 1.9 17.05 1.9H0.950001C0.42533 1.9 0 1.47467 0 0.95Z" fill="black"/>
<path d="M0.95 8.85393C0.425329 8.85393 0 8.4286 0 7.90393C0 7.37926 0.42533 6.95393 0.95 6.95393H12.05C12.5747 6.95393 13 7.37926 13 7.90393C13 8.4286 12.5747 8.85393 12.05 8.85393H0.95Z" fill="black"/>
<path d="M0.950001 16C0.42533 16 0 15.5746 0 15.05C0 14.5253 0.42533 14.1 0.950001 14.1H17.05C17.5747 14.1 18 14.5253 18 15.05C18 15.5746 17.5747 16 17.05 16H0.950001Z" fill="black"/>
</svg>
