<svg width="15" height="30" viewBox="0 0 15 30" fill="none" xmlns="http://www.w3.org/2000/svg">
<path d="M6.84605 29.7071C7.23658 30.0976 7.86974 30.0976 8.26027 29.7071L14.6242 23.3431C15.0148 22.9526 15.0148 22.3195 14.6242 21.9289C14.2337 21.5384 13.6005 21.5384 13.21 21.9289L7.55316 27.5858L1.89631 21.9289C1.50578 21.5384 0.872618 21.5384 0.482093 21.9289C0.0915688 22.3195 0.0915687 22.9526 0.482093 23.3431L6.84605 29.7071ZM6.55316 7L6.55316 29L8.55316 29L8.55316 7L6.55316 7Z" fill="#333333"/>
<path d="M8.26027 0.292892C7.86974 -0.0976315 7.23658 -0.0976314 6.84605 0.292892L0.482093 6.65685C0.0915687 7.04738 0.0915688 7.68054 0.482093 8.07107C0.872618 8.46159 1.50578 8.46159 1.89631 8.07107L7.55316 2.41421L13.21 8.07107C13.6005 8.46159 14.2337 8.46159 14.6242 8.07107C15.0148 7.68054 15.0148 7.04738 14.6242 6.65685L8.26027 0.292892ZM8.55316 23L8.55316 1L6.55316 1L6.55316 23L8.55316 23Z" fill="#333333"/>
</svg>
