<svg width="89" height="22" viewBox="0 0 89 22" fill="none" xmlns="http://www.w3.org/2000/svg">
<path d="M54.4308 2.18945L49.4126 16.2313C48.3672 19.1346 47.6876 20.0357 44.5253 20.0357H43.2968V18.1334H44.2638C45.8319 18.1334 46.5899 18.0334 47.2171 15.9308L47.3218 15.6555L42.2513 2.18945H44.8911L48.4716 12.5768L51.9477 2.18945H54.4308ZM35.7846 14.0287C38.2152 14.0287 39.8095 12.2013 39.8095 8.97264C39.8095 5.74362 38.2152 3.91654 35.7846 3.91654C33.6676 3.91654 31.6815 5.41847 31.6815 8.97264C31.6815 12.5267 33.6676 14.0287 35.7846 14.0287ZM31.7859 2.18945V4.31704C32.6486 2.89046 34.1119 1.96431 36.3858 1.96431C39.6268 1.96431 42.397 4.56734 42.397 8.97264C42.397 13.4529 39.6268 15.9809 36.3858 15.9809C34.1119 15.9809 32.6486 15.0547 31.7859 13.6282V20.0357H29.4076V2.18945H31.7859ZM20.6092 13.9785C22.7785 13.9785 24.817 12.4267 24.817 8.97264C24.817 5.36835 22.7785 3.96666 20.6092 3.96666C18.4398 3.96666 16.4012 5.29333 16.4012 8.97264C16.4012 12.5768 18.4398 13.9785 20.6092 13.9785ZM27.3521 8.97264C27.3521 13.8533 23.876 15.9809 20.6092 15.9809C17.3422 15.9809 13.8661 13.8533 13.8661 8.97264C13.8661 4.09189 17.3422 1.96431 20.6092 1.96431C23.876 1.96431 27.3521 4.09189 27.3521 8.97264ZM7.77048 12.5018L11.5862 2.18945H14.0431L8.73728 15.6555H6.62036L1.31482 2.18945H3.95459L7.77048 12.5018Z" fill="black"/>
<path d="M87.6852 2.18395H74.7405L67.885 19.5591H80.8297L87.6852 2.18395ZM84.4637 4.31617L79.2908 17.4269H71.1064L76.2793 4.31617H84.4637V4.31617ZM72.5127 2.18511H58.6486L65.5044 19.5604H67.8847L61.8699 4.31659H71.6718L72.5127 2.18511Z" fill="black"/>
</svg>
