<svg width="89" height="22" viewBox="0 0 89 22" fill="none" xmlns="http://www.w3.org/2000/svg">
<path d="M54.4308 2.18936L49.4126 16.2312C48.3672 19.1345 47.6876 20.0356 44.5253 20.0356H43.2968V18.1333H44.2638C45.8319 18.1333 46.5899 18.0333 47.2171 15.9307L47.3218 15.6554L42.2513 2.18936H44.8911L48.4716 12.5767L51.9477 2.18936H54.4308ZM35.7846 14.0286C38.2152 14.0286 39.8095 12.2012 39.8095 8.97255C39.8095 5.74353 38.2152 3.91645 35.7846 3.91645C33.6676 3.91645 31.6815 5.41838 31.6815 8.97255C31.6815 12.5266 33.6676 14.0286 35.7846 14.0286ZM31.7859 2.18936V4.31695C32.6486 2.89037 34.1119 1.96421 36.3858 1.96421C39.6268 1.96421 42.397 4.56725 42.397 8.97255C42.397 13.4528 39.6268 15.9808 36.3858 15.9808C34.1119 15.9808 32.6486 15.0546 31.7859 13.6281V20.0356H29.4076V2.18936H31.7859ZM20.6092 13.9784C22.7785 13.9784 24.817 12.4266 24.817 8.97255C24.817 5.36826 22.7785 3.96657 20.6092 3.96657C18.4398 3.96657 16.4012 5.29323 16.4012 8.97255C16.4012 12.5767 18.4398 13.9784 20.6092 13.9784ZM27.3521 8.97255C27.3521 13.8532 23.876 15.9808 20.6092 15.9808C17.3422 15.9808 13.8661 13.8532 13.8661 8.97255C13.8661 4.0918 17.3422 1.96421 20.6092 1.96421C23.876 1.96421 27.3521 4.0918 27.3521 8.97255ZM7.77048 12.5018L11.5862 2.18936H14.0431L8.73728 15.6554H6.62036L1.31482 2.18936H3.95459L7.77048 12.5018Z" fill="white"/>
<path d="M87.6852 2.18386H74.7405L67.885 19.559H80.8297L87.6852 2.18386ZM84.4637 4.31608L79.2908 17.4268H71.1064L76.2793 4.31608H84.4637V4.31608ZM72.5127 2.18502H58.6486L65.5044 19.5603H67.8847L61.8699 4.31649H71.6718L72.5127 2.18502Z" fill="white"/>
</svg>
